<svg width="16" height="16" viewBox="0 0 16 16" fill="none" xmlns="http://www.w3.org/2000/svg">
<path d="M7.76611 0.0136414H8.23407V1.87734H7.76611V0.0136414Z" fill="black"/>
<path d="M10.2646 2.08472L10.7205 0.156387L11.1758 0.264016L10.72 2.19235L10.2646 2.08472Z" fill="black"/>
<path d="M12.709 2.84451L13.6837 1.12994L14.0903 1.36111L13.1156 3.07568L12.709 2.84451Z" fill="black"/>
<path d="M4.82617 0.258759L5.28149 0.15113L5.73731 2.07946L5.28199 2.18709L4.82617 0.258759Z" fill="black"/>
<path d="M1.9043 1.35748L2.31095 1.12631L3.28563 2.84089L2.87898 3.07206L1.9043 1.35748Z" fill="black"/>
<path d="M7.76611 14.1102H8.23407V15.9864H7.76611V14.1102Z" fill="black"/>
<path d="M4.8252 15.7451L5.28383 13.8049L5.73915 13.9125L5.28051 15.8527L4.8252 15.7451Z" fill="black"/>
<path d="M1.90088 14.6394L2.88109 12.9151L3.28774 13.1463L2.30753 14.8706L1.90088 14.6394Z" fill="black"/>
<path d="M10.2607 13.8991L10.7161 13.7915L11.1747 15.7317L10.7194 15.8393L10.2607 13.8991Z" fill="black"/>
<path d="M12.6992 13.1496L13.1059 12.9184L14.0861 14.6427L13.6794 14.8739L12.6992 13.1496Z" fill="black"/>
<path d="M15.9735 7.91724C15.0129 5.14169 11.7341 3.20322 8.00002 3.20322C4.26598 3.20322 0.987098 5.14169 0.0264861 7.91724L0 7.99377L0.0264861 8.07029C0.306041 8.87817 0.783414 9.62524 1.44529 10.2908L1.77709 9.96076C1.18638 9.36683 0.755649 8.7054 0.495904 7.99377C1.17571 6.13138 2.99801 4.68326 5.29647 4.03801C2.51484 5.93911 2.50857 10.0207 5.25769 11.9375C4.05468 11.5939 2.96819 11.026 2.10681 10.2703L1.79818 10.622C3.26705 11.9107 5.34629 12.6839 7.55796 12.7752C7.85311 12.8023 8.14695 12.8027 8.44809 12.7747C11.9938 12.6267 15.0514 10.7342 15.9735 8.07029L16 7.99377L15.9735 7.91724ZM5.48767 4.4753L6.03774 6.01236L5.95132 6.55831L5.03966 6.94022L4.80212 8.00952L3.67598 7.79139C3.73997 6.44157 4.4209 5.23687 5.48767 4.4753ZM8.81051 12.2519C8.68051 12.2765 8.54958 12.295 8.41818 12.3077C8.14299 12.3188 7.87582 12.3198 7.58285 12.3079C5.98383 12.1544 4.65603 11.1416 4.04148 9.75923C4.14964 9.75324 3.63976 9.77461 5.33138 9.71037L6.23509 10.657L7.28979 10.3378L8.7474 11.2792L8.83038 12.2155C8.8194 12.2177 8.81332 12.2316 8.81051 12.2519ZM9.29272 12.1316L9.19332 11.0101L7.3616 9.82714L6.37488 10.1258L5.52427 9.23475L3.86759 9.2972C3.76427 8.96633 3.70072 8.62157 3.67935 8.26871L5.1602 8.5555L5.44391 7.27817L6.37267 6.88909L6.51857 5.96732L5.89308 4.21874C6.37482 3.95004 6.90523 3.77555 7.45869 3.70633L7.10273 5.76404L7.78204 6.20373L8.77217 6.21365L10.8354 7.66801L12.2399 7.12372C12.2947 7.39067 12.3246 7.66439 12.3283 7.94204L11.7367 7.93768L10.3977 9.06432L9.9613 10.6793L10.5952 11.4658C10.1946 11.7663 9.7534 11.9882 9.29272 12.1316V12.1316ZM12.303 8.47501C12.1924 9.49402 11.727 10.4336 10.9754 11.1452C10.9649 11.1443 10.954 11.1462 10.9441 11.1529L10.4753 10.5713L10.8113 9.32799L11.9059 8.40691L12.2782 8.40965C12.2761 8.43136 12.2861 8.45411 12.303 8.47501V8.47501ZM10.7394 11.9393C13.1568 10.2562 13.4997 6.81431 11.4699 4.68918L11.1315 5.01238C11.5843 5.48642 11.9171 6.04631 12.1153 6.65361C12.0946 6.66173 12.0827 6.6708 12.0861 6.68147L10.9001 7.1411L8.92266 5.74719L7.92243 5.73715L7.61654 5.53917C7.94704 3.62849 7.937 3.67304 7.94012 3.67285C8.9937 3.65847 10.0087 4.02338 10.8087 4.707L11.1127 4.35129C10.9812 4.23889 10.8443 4.1345 10.7029 4.03786C13.0016 4.68301 14.8242 6.13126 15.5041 7.9938C14.8277 9.84642 13.0208 11.2891 10.7394 11.9393V11.9393Z" fill="black"/>
<path d="M9.61453 8.234H9.14658V7.76605H9.61453V8.234ZM8.21068 8.234H7.74272V7.76605H8.21068V8.234ZM6.80682 8.234H6.33887V7.76605H6.80682V8.234Z" fill="black"/>
</svg>
