<?xml version="1.0" encoding="UTF-8" standalone="no"?> <svg id="Layer_1" enable-background="new 0 0 512.873 512.873" height="512" viewBox="0 0 512.873 512.873" width="512" xmlns="http://www.w3.org/2000/svg"><g><g><path d="m248.937.437h15v59.74h-15z"/><path d="m311.768 30.042h63.527v15h-63.527z" transform="matrix(.23 -.973 .973 .23 228.087 363.265)"/><path d="m398.024 59.786h63.245v15h-63.245z" transform="matrix(.494 -.869 .869 .494 158.797 407.528)"/><path d="m161.842 5.778h15v63.527h-15z" transform="matrix(.973 -.23 .23 .973 -4.095 39.896)"/><path d="m75.726 35.664h15v63.245h-15z" transform="matrix(.869 -.494 .494 .869 -22.381 49.93)"/><path d="m248.937 452.297h15v60.14h-15z"/><path d="m137.427 467.641h63.919v15h-63.919z" transform="matrix(.23 -.973 .973 .23 -331.958 530.862)"/><path d="m51.515 437.931h63.604v15h-63.604z" transform="matrix(.494 -.869 .869 .494 -345.079 297.688)"/><path d="m335.987 443.182h15v63.919h-15z" transform="matrix(.973 -.23 .23 .973 -99.944 91.59)"/><path d="m422.057 413.629h15v63.604h-15z" transform="matrix(.869 -.494 .494 .869 -164.032 270.557)"/><path d="m512.024 253.783c-30.792-88.969-135.894-151.106-255.587-151.106s-224.796 62.137-255.588 151.106l-.849 2.453.849 2.453c8.961 25.896 24.263 49.843 45.479 71.176l10.636-10.578c-18.935-19.038-32.742-40.24-41.068-63.051 21.791-59.698 80.204-106.117 153.88-126.8-89.164 60.939-89.365 191.774-1.243 253.214-38.562-11.013-73.389-29.218-101-53.442l-9.893 11.275c47.084 41.307 113.733 66.094 184.627 69.02 9.461.867 18.88.881 28.533-.017 113.657-4.742 211.667-65.406 241.224-150.797l.849-2.453zm-336.119-110.33 17.632 49.27-2.77 17.5-29.223 12.242-7.614 34.276-36.098-6.992c2.051-43.268 23.878-81.884 58.073-106.296zm106.512 249.275c-4.167.788-8.364 1.382-12.576 1.788-8.821.357-17.385.389-26.776.008-51.256-4.921-93.818-37.385-113.517-81.697 3.467-.192-12.877.493 41.347-1.566l28.968 30.344 33.808-10.231 46.723 30.175 2.66 30.012c-.352.071-.547.517-.637 1.167zm15.457-3.857-3.186-35.948-58.715-37.919-31.629 9.572-27.266-28.561-53.104 2.002c-3.312-10.606-5.349-21.657-6.034-32.968l47.468 9.193 9.094-40.944 29.771-12.472 4.677-29.547-20.05-56.05c15.442-8.613 32.444-14.206 50.185-16.425l-11.41 65.959 21.775 14.094 31.738.318 66.135 46.619 45.022-17.447c1.755 8.557 2.715 17.331 2.832 26.231l-18.962-.14-42.92 36.114-13.99 51.769 20.32 25.208c-12.841 9.634-26.984 16.748-41.751 21.342zm96.494-117.209c-3.545 32.664-18.465 62.781-42.556 85.592-.336-.03-.687.033-1.003.247l-15.028-18.643 10.769-39.854 35.089-29.525 11.932.088c-.067.696.254 1.425.797 2.095zm-50.122 111.047c77.49-53.953 88.481-164.28 23.418-232.4l-10.848 10.36c14.513 15.195 25.18 33.142 31.535 52.609-.664.26-1.044.551-.937.893l-38.017 14.733-63.385-44.681-32.062-.322-9.805-6.346c10.594-61.246 10.272-59.818 10.372-59.824 33.772-.461 66.309 11.236 91.95 33.149l9.746-11.402c-4.216-3.603-8.605-6.949-13.136-10.047 73.685 20.68 132.106 67.103 153.9 126.806-21.68 59.385-79.6 105.63-152.731 126.472z"/></g><g><path d="m308.196 263.937h-15v-15h15zm-45 0h-15v-15h15zm-45 0h-15v-15h15z"/></g></g></svg>