<svg aria-hidden="true" style="position: absolute; width: 0; height: 0; overflow: hidden;" version="1.1" xmlns="http://www.w3.org/2000/svg" xmlns:xlink="http://www.w3.org/1999/xlink">
<defs>
<symbol id="icon-logo-ukrpost" viewBox="0 0 230 32">
<path d="M157.868 1.002c-1.399 0.466-2.021 4.672-2.021 13.082v12.305h-9.322v-12.461c0-9.967-0.465-12.459-2.33-12.459s-2.33 2.647-2.33 14.795v14.797h34.18v-14.797c0-13.706-0.156-14.795-3.109-14.795-2.796 0-3.107 1.091-3.107 12.615v12.461l-4.194-0.467c-4.351-0.468-4.351-0.624-4.507-12.616-0.31-13.083-0.31-13.55-3.261-12.459zM0.484 2.247c0 0.467 2.021 4.984 4.662 10.125 4.661 9.189 4.815 14.017 0.466 14.017-2.486 0-2.019 3.426 0.466 4.204 3.263 1.091 6.993-3.893 12.275-16.353 4.815-11.525 5.126-12.772 2.486-12.772-2.021 0-3.73 2.182-5.593 6.543l-2.642 6.697-3.263-6.697c-2.019-4.050-4.349-6.542-6.059-6.542-1.554 0-2.797 0.311-2.797 0.778zM28.451 16.264c0 12.149 0.465 14.797 2.33 14.797 1.709 0 2.33-1.714 2.33-6.23 0-8.411 4.195-8.411 9.012 0 2.175 3.894 4.661 6.23 6.526 6.23 4.038 0 3.884-0.467-1.555-8.722-4.505-6.542-4.661-7.009-2.33-11.37 1.244-2.492 2.953-5.139 3.884-5.608 2.642-1.556 1.709-3.893-1.397-3.893-1.711 0-4.351 2.336-6.371 5.451-1.863 2.959-4.349 5.452-5.593 5.452-1.397 0-2.175-1.714-2.175-5.452s-0.777-5.451-2.33-5.451c-1.865 0-2.33 2.647-2.33 14.795zM55.173 15.799c0.465 12.304 0.931 14.484 3.263 14.951 2.175 0.467 2.64-0.624 2.64-4.984 0-5.141 0.311-5.608 4.661-5.608 6.371 0 13.051-6.542 11.652-11.37-1.708-5.451-5.438-7.32-14.292-7.32h-8.391l0.465 14.329zM70.709 7.386c3.107 3.116 0.621 7.321-4.661 7.788-4.815 0.467-4.972 0.311-4.972-4.83 0-4.982 0.311-5.451 4.040-4.982 2.175 0.156 4.661 1.091 5.593 2.023zM82.828 16.264c0 11.994 0.466 14.797 2.33 14.797 1.709 0 2.33-2.803 2.642-12.928 0.466-12.459 0.621-12.772 4.349-13.083 8.079-0.623 8.7 0.311 8.856 12.461 0.156 6.073 0.31 11.681 0.31 12.304 0.156 0.78 1.244 1.247 2.487 1.247 1.863 0 2.329-2.648 2.329-14.797v-14.794h-23.302v14.794zM116.385 3.492c-3.728 2.805-5.438 11.838-3.418 18.38 2.953 9.189 13.828 11.525 20.042 4.204 3.884-4.515 3.574-16.82-0.465-21.18-3.574-3.896-11.808-4.675-16.159-1.404zM129.437 9.1c3.263 6.386-0.156 17.289-5.438 17.289-5.905 0-9.788-13.706-5.128-18.378 2.797-2.805 8.7-2.182 10.565 1.091zM179.153 2.87c0 0.78 1.863 1.714 4.349 2.025 4.195 0.467 4.195 0.624 4.661 13.395 0.311 11.216 0.777 12.928 3.107 12.461 2.176-0.468 2.797-2.805 3.418-12.928 0.777-11.681 0.932-12.461 4.195-12.304 1.863 0 3.728-0.78 4.194-2.025 0.623-1.558-1.863-2.025-11.496-2.025-6.835 0-12.429 0.623-12.429 1.401zM211.624 5.674c-4.972 12.926-9.167 24.296-9.167 24.763 0 0.313 1.244 0.624 2.952 0.624 1.555 0 3.263-1.402 3.73-3.116 1.242-4.517 12.74-4.517 13.982 0 0.777 2.96 5.749 4.517 5.749 1.869 0-0.623-2.176-7.164-4.972-14.795-5.438-14.641-9.166-17.444-12.273-9.345zM218.771 15.797c0.931 3.894 0.621 4.361-2.797 4.361-3.728 0-3.884-0.311-2.486-4.984 0.777-2.803 1.398-5.452 1.398-5.763 0-2.181 3.109 2.803 3.885 6.386z"></path>
</symbol>
</defs>
</svg>
