<svg width="158" height="22" fill="none" xmlns="http://www.w3.org/2000/svg">
  <path d="M108.525.688c-.962.32-1.389 3.212-1.389 8.993v8.459h-6.408V9.574c0-6.852-.32-8.565-1.602-8.565s-1.602 1.82-1.602 10.171v10.172h23.497V11.18c0-9.422-.107-10.171-2.137-10.171-1.922 0-2.136.75-2.136 8.672v8.566l-2.883-.321c-2.991-.322-2.991-.429-3.098-8.673-.213-8.994-.213-9.315-2.242-8.565ZM.333 1.544c0 .321 1.389 3.426 3.205 6.96 3.204 6.317 3.31 9.636.32 9.636-1.709 0-1.388 2.355.32 2.89 2.243.75 4.807-2.676 8.438-11.242 3.31-7.923 3.524-8.78 1.709-8.78-1.389 0-2.564 1.5-3.845 4.498L8.664 10.11 6.421 5.506c-1.388-2.784-2.99-4.497-4.165-4.497-1.068 0-1.923.214-1.923.535ZM19.558 11.18c0 8.352.32 10.172 1.602 10.172 1.175 0 1.602-1.178 1.602-4.283 0-5.782 2.884-5.782 6.195 0 1.495 2.677 3.204 4.283 4.486 4.283 2.776 0 2.67-.321-1.069-5.996-3.097-4.497-3.204-4.818-1.602-7.816.855-1.713 2.03-3.533 2.67-3.855 1.816-1.07 1.175-2.676-.96-2.676-1.176 0-2.991 1.606-4.38 3.747-1.281 2.034-2.99 3.748-3.845 3.748-.96 0-1.495-1.178-1.495-3.748 0-2.57-.534-3.747-1.602-3.747-1.282 0-1.602 1.82-1.602 10.171ZM37.928 10.86c.32 8.458.64 9.957 2.243 10.278 1.495.321 1.815-.429 1.815-3.426 0-3.534.214-3.855 3.204-3.855 4.38 0 8.972-4.497 8.01-7.816-1.174-3.747-3.738-5.032-9.825-5.032h-5.768l.32 9.85Zm10.68-5.783c2.136 2.142.427 5.033-3.204 5.354-3.31.321-3.418.214-3.418-3.32 0-3.425.214-3.747 2.777-3.425 1.495.107 3.204.75 3.845 1.391ZM56.939 11.18c0 8.245.32 10.172 1.602 10.172 1.175 0 1.602-1.927 1.816-8.887.32-8.565.427-8.78 2.99-8.994 5.554-.428 5.981.214 6.088 8.566.107 4.175.213 8.03.213 8.458.107.536.855.857 1.71.857 1.281 0 1.601-1.82 1.601-10.172V1.01H56.94V11.18ZM80.008 2.4c-2.563 1.928-3.738 8.138-2.35 12.635 2.03 6.317 9.506 7.923 13.778 2.89 2.67-3.104 2.457-11.563-.32-14.56C88.659.687 82.999.151 80.008 2.4Zm8.972 3.855c2.243 4.39-.107 11.885-3.738 11.885-4.059 0-6.729-9.422-3.525-12.634 1.923-1.928 5.981-1.5 7.263.75ZM123.157 1.972c0 .536 1.281 1.178 2.99 1.392 2.884.321 2.884.429 3.204 9.208.214 7.71.534 8.887 2.136 8.566 1.496-.322 1.923-1.928 2.35-8.887.534-8.03.641-8.566 2.884-8.458 1.281 0 2.563-.536 2.883-1.392.428-1.071-1.281-1.392-7.903-1.392-4.699 0-8.544.428-8.544.963ZM145.479 3.9c-3.418 8.886-6.302 16.702-6.302 17.023 0 .215.855.429 2.029.429 1.069 0 2.243-.964 2.564-2.142.854-3.105 8.758-3.105 9.612 0 .534 2.035 3.952 3.105 3.952 1.285 0-.428-1.496-4.925-3.418-10.171-3.738-10.065-6.301-11.992-8.437-6.424Zm4.913 6.959c.64 2.677.427 2.998-1.923 2.998-2.563 0-2.67-.214-1.709-3.426.534-1.927.961-3.748.961-3.962 0-1.499 2.137 1.927 2.671 4.39Z" fill="#000"/>
</svg>
